<?xml version="1.0" encoding="UTF-8"?>
<svg width="22px" height="21px" viewBox="0 0 22 21" version="1.1" xmlns="http://www.w3.org/2000/svg" xmlns:xlink="http://www.w3.org/1999/xlink">
    <!-- Generator: Sketch 50.2 (55047) - http://www.bohemiancoding.com/sketch -->
    <title>Shape</title>
    <desc>Created with Sketch.</desc>
    <defs></defs>
    <g id="Symbols" stroke="none" stroke-width="1" fill="none" fill-rule="evenodd">
        <g id="lightbulb-icon" transform="translate(-2.000000, -2.000000)" fill="#757575">
            <path d="M4.5,19 L6,20.5 L7.8,18.7 L6.4,17.3 L4.5,19 L4.5,19 Z M12,22.9 L14,22.9 L14,20 L12,20 L12,22.9 L12,22.9 Z M5,11 L2,11 L2,13 L5,13 L5,11 L5,11 Z M16,6.8 L16,2 L10,2 L10,6.8 C8.2,7.8 7,9.8 7,12 C7,15.3 9.7,18 13,18 C16.3,18 19,15.3 19,12 C19,9.8 17.8,7.8 16,6.8 L16,6.8 Z M21,11 L21,13 L24,13 L24,11 L21,11 L21,11 Z M18.2,18.7 L20,20.5 L21.4,19.1 L19.6,17.3 L18.2,18.7 L18.2,18.7 Z" id="Shape" transform="translate(13.000000, 12.500000) scale(1, -1) translate(-13.000000, -12.500000) "></path>
        </g>
    </g>
</svg>