<svg width="24" height="24" viewBox="0 0 24 24" fill="none" xmlns="http://www.w3.org/2000/svg">
<path fill-rule="evenodd" clip-rule="evenodd" d="M12 24C18.6274 24 24 18.6274 24 12C24 5.37258 18.6274 0 12 0C5.37258 0 0 5.37258 0 12C0 18.6274 5.37258 24 12 24ZM12.4117 3.55246L20.2466 8.77571C20.4475 8.9096 20.5719 9.1488 20.5719 9.38793V14.6112C20.5719 14.8503 20.4475 15.0895 20.2466 15.2234L12.4118 20.4474C12.1419 20.6135 11.8565 20.612 11.5891 20.4474L3.75419 15.2234C3.55326 15.0895 3.42891 14.8503 3.42891 14.6112V9.38793C3.42891 9.1488 3.55326 8.9096 3.75415 8.77571L11.589 3.55246C11.8589 3.38638 12.1443 3.38789 12.4117 3.55246ZM18.5056 9.38793L12.737 5.54221V8.97657L15.9322 11.1099L18.5056 9.38793ZM11.2638 8.97657V5.54221L5.49524 9.38793L8.06859 11.1099L11.2638 8.97657ZM6.74845 11.9996L4.90213 10.7655V13.2336L6.74845 11.9996ZM5.49524 14.6112L11.2638 18.4569V15.0225L8.06859 12.8892L5.49524 14.6112ZM9.39831 11.9996L12.0004 13.7406L14.6025 11.9996L12.0004 10.2585L9.39831 11.9996ZM12.737 15.0225V18.4569L18.5056 14.6112L15.9322 12.8892L12.737 15.0225ZM17.2523 11.9996L19.0987 13.2336V10.7655L17.2523 11.9996Z" fill="black"/>
</svg>
