<?xml version="1.0" encoding="UTF-8"?>
<svg width="338px" height="390px" viewBox="0 0 338 390" version="1.1" xmlns="http://www.w3.org/2000/svg" xmlns:xlink="http://www.w3.org/1999/xlink">
    <!-- Generator: Sketch 57.1 (83088) - https://sketch.com -->
    <title>Combined Shape Copy</title>
    <desc>Created with Sketch.</desc>
    <g id="Page-1" stroke="none" stroke-width="1" fill="none" fill-rule="evenodd">
        <g id="Icon" transform="translate(-87.000000, -61.000000)" fill="#000000">
            <path d="M242.583,359.171 L301.785,424.586 L256,451 L216.191,428.033 L242.583,359.171 Z M171.297,280.403 L239.195,355.427 L212.241,425.755 L125.83,375.902 L171.297,280.403 Z M294.161,224.597 L365.413,387.877 L305.774,422.284 L244.39,354.458 L294.161,224.597 Z M338.598,108.653 L425,158.5 L425,286.912 L369.068,384.993 L296.458,218.603 L338.598,108.653 Z M425,296 L425,353.5 L376.133,381.693 L425,296 Z M87,187.258 L168.029,276.792 L121.917,373.645 L87,353.5 L87,187.258 Z M248.11,119.067 L291.593,218.713 L241.002,350.714 L173.39,276.007 L248.11,119.067 Z M229.454,76.315 L245.725,113.601 L170.122,272.396 L87,180.55 L87,158.5 L229.454,76.315 Z M271.499,69.942 L334.648,106.374 L293.89,212.719 L250.673,113.684 L271.499,69.942 Z M256,61 L267.586,67.684 L248.288,108.218 L233.378,74.051 L256,61 Z" id="Combined-Shape-Copy"></path>
        </g>
    </g>
</svg>